<svg version="1.2" xmlns="http://www.w3.org/2000/svg" viewBox="0 0 800 800" width="800" height="800">
	<style>
		.s0 { fill: #000000 } 
	</style>
	<path class="s0" d="m800 181.9v463.63c0 30.14-24.4 54.54-54.53 54.54h-127.3v-309.07l-218.17 163.67-218.17-163.67v309.1h-127.3c-7.16 0-14.25-1.41-20.87-4.15-6.62-2.75-12.64-6.77-17.7-11.83-5.06-5.07-9.08-11.09-11.82-17.71-2.74-6.62-4.14-13.71-4.14-20.88v-463.63c0-67.43 76.97-105.93 130.9-65.47l50.93 38.24 218.17 163.6 218.17-163.67 50.93-38.17c53.9-40.43 130.9-1.96 130.9 65.47z"/>
</svg>