<svg version="1.2" xmlns="http://www.w3.org/2000/svg" viewBox="0 0 800 800" width="800" height="800">
	<style>
		.s0 { fill: #000000 } 
	</style>
	<path class="s0" d="m257.78 144c-141.45 0-256 114.56-256 256 0 141.44 114.55 256 256 256 141.44 0 256-114.56 256-256 0-17.56-1.89-34.67-5.34-51.22l-1.33-5.67h-249.33v85.33h170.66c-13.55 80.67-86.11 142.23-170.66 142.23-94.22 0-170.67-76.45-170.67-170.67 0-94.22 76.45-170.67 170.67-170.67 42.66 0 81.55 15.78 111.55 41.67l61.11-59.89c-45.55-41.67-106.11-67.11-172.66-67.11zm398.22 113.78v85.33h-85.33v56.89h85.33v85.33h56.89v-85.33h85.33v-56.89h-85.33v-85.33z"/>
</svg>