<svg version="1.2" xmlns="http://www.w3.org/2000/svg" viewBox="0 0 800 828" width="800" height="828">
	<style>
		.s0 { fill: #000000 } 
	</style>
	<path id="Path_215" fill-rule="evenodd" class="s0" d="m490.25 54.15c42.32 17.53 80.77 43.22 113.16 75.6 32.4 32.38 58.1 70.83 75.64 113.14 17.54 42.31 26.58 87.66 26.61 133.47 0 141.05-84.97 268.22-215.28 322.21-130.32 53.99-280.32 24.17-380.08-75.55-99.75-99.73-129.62-249.72-75.67-380.05 53.95-130.34 181.09-215.34 322.14-215.38 45.81 0 91.16 9.03 133.48 26.56zm-245.81 50.99c-35.62 14.77-67.97 36.39-95.23 63.65-27.26 27.26-48.89 59.62-63.65 95.23-14.76 35.62-22.37 73.79-22.39 112.34 0 118.75 71.54 225.81 181.25 271.25 109.71 45.44 235.99 20.32 319.96-63.64 83.97-83.97 109.09-210.26 63.64-319.97-45.44-109.71-152.5-181.24-271.25-181.24-38.55 0.02-76.72 7.62-112.33 22.38z"/>
	<path id="Path_216" fill-rule="evenodd" class="s0" d="m784.03 751.5l-173.13-173.13c-5.14-5.32-12.21-8.35-19.61-8.42-7.4-0.06-14.51 2.85-19.74 8.08-5.23 5.23-8.15 12.35-8.08 19.75 0.06 7.4 3.1 14.46 8.42 19.6l173.13 173.05c5.14 5.32 12.2 8.35 19.6 8.42 7.4 0.06 14.52-2.85 19.75-8.08 5.23-5.23 8.14-12.35 8.08-19.75-0.07-7.4-3.1-14.46-8.42-19.52z"/>
</svg>