<svg version="1.2" xmlns="http://www.w3.org/2000/svg" viewBox="0 0 800 800" width="800" height="800">
	<style>
		.s0 { fill: #000000 } 
	</style>
	<g>
		<path class="s0" d="m422.16 62.88v-26.49c0-14.63-11.86-26.49-26.49-26.49h-369.18c-14.63 0-26.49 11.86-26.49 26.49v26.49c0 14.63 11.86 26.49 26.49 26.49h369.18c14.63 0 26.49-11.86 26.49-26.49z"/>
		<path class="s0" d="m345.92 176.78h-319.43c-14.63 0-26.49 11.86-26.49 26.49v26.49c0 14.63 11.86 26.49 26.49 26.49h319.43c14.63 0 26.49-11.86 26.49-26.49v-26.49c0-14.63-11.86-26.49-26.49-26.49z"/>
		<path class="s0" d="m296.17 343.67h-269.68c-14.63 0-26.49 11.86-26.49 26.49v26.49c0 14.63 11.86 26.49 26.49 26.49h269.68c14.63 0 26.49-11.86 26.49-26.49v-26.49c0-14.63-11.86-26.49-26.49-26.49z"/>
		<path class="s0" d="m246.42 529.1h-219.93c-14.63 0-26.49 11.86-26.49 26.49v26.49c0 14.63 11.86 26.49 26.49 26.49h219.93c14.63 0 26.49-11.86 26.49-26.49v-26.49c0-14.63-11.86-26.49-26.49-26.49z"/>
		<path class="s0" d="m196.67 695.99h-170.18c-14.63 0-26.49 11.86-26.49 26.49v26.49c0 14.63 11.86 26.49 26.49 26.49h170.18c14.63 0 26.49-11.86 26.49-26.49v-26.49c0-14.63-11.86-26.49-26.49-26.49z"/>
		<path class="s0" d="m790.17 574.51l-18.73-18.73c-4.97-4.97-11.7-7.76-18.73-7.76-7.03 0-13.76 2.79-18.73 7.76l-91.11 91.1v-597.25c0-14.63-11.86-26.49-26.49-26.49h-26.49c-14.63 0-26.49 11.86-26.49 26.49v597.25l-91.11-91.11c-4.97-4.96-11.7-7.75-18.73-7.75-7.02 0-13.76 2.79-18.73 7.75l-18.73 18.74c-10.35 10.34-10.35 27.11 0 37.46l168.3 168.31c5.18 5.17 11.95 7.75 18.73 7.75 6.78 0 13.56-2.58 18.73-7.75l168.31-168.31c10.35-10.35 10.35-27.12 0-37.46z"/>
	</g>
</svg>