<svg version="1.2" xmlns="http://www.w3.org/2000/svg" viewBox="0 0 800 800" width="800" height="800">
	<style>
		.s0 { fill: #000000 } 
	</style>
	<g>
		<g>
			<path class="s0" d="m775.97 156.91q-5.92 1.72-11.83 3.22c-24.09 6.08-26.31-1.94-8.86-19.66q11.71-11.9 20.71-25.89c13.43-20.91 1.78-30.02-21.08-20.26q-12.24 5.23-24.85 9.46c-23.56 7.91-56.98-4.02-77.97-17.33q-39.74-25.21-90.35-25.2-70.88 0-120.87 49.97-49.98 50-49.98 120.87 0 9.7 1.09 19.68c1.2 10.82-17.03 18.67-41.64 15.2q-79.84-11.28-151.72-48.37-71.3-36.77-125.84-92.56c-17.38-17.77-40.89-16.24-47.38 7.75q-5.82 21.58-5.82 44.88 0 43.91 20.63 81.46 10.25 18.68 24.05 33.82c15.47 16.98 13.1 26.84-8.44 20.8-21.52-6.04-37.3-15-37.3-14.42 0 0.59 0 1.06 0 1.06q0 61.88 38.87 108.7 23.95 28.84 55.64 44.53c22.27 11.03 32.65 17.19 20.19 18.8q-11.27 1.46-22.67 1.46-7.73 0-16.19-0.71c-8.91-0.76-10.51 17.81 3 38.67q16.11 24.87 41.22 43.77 25.55 19.23 55.03 27.64c23.9 6.81 28.7 19.22 7.39 32q-79.12 47.47-175.09 47.47-10.81-0.01-20.65-0.48c-11.41-0.55-3.76 9.49 18.26 21.02q103.17 54.04 223.48 54.03 90.97 0 170.85-28.82 79.86-28.83 136.46-77.23 56.59-48.39 97.59-111.34 40.99-62.95 61.1-131.43 20.09-68.5 20.09-137.27 0-6.2-0.09-11.11c-0.13-6.13 16.11-22.75 34.23-39.75q12.27-11.51 23.44-24.18c16.44-18.66 9.16-27.21-14.7-20.25z"/>
		</g>
	</g>
</svg>